<?xml version="1.0" encoding="iso-8859-1"?>
<!-- Generator: Adobe Illustrator 24.0.2, SVG Export Plug-In . SVG Version: 6.00 Build 0)  -->
<svg version="1.1" id="Layer_1" xmlns="http://www.w3.org/2000/svg" xmlns:xlink="http://www.w3.org/1999/xlink" x="0px" y="0px"
	 viewBox="0 0 48 48" style="enable-background:new 0 0 48 48;" xml:space="preserve">
<linearGradient id="SVGID_1_" gradientUnits="userSpaceOnUse" x1="24" y1="6.2553" x2="24" y2="42.2553">
	<stop  offset="0" style="stop-color:#FFA402"/>
	<stop  offset="1" style="stop-color:#FF6000"/>
</linearGradient>
<path style="fill:url(#SVGID_1_);" d="M13.083,42h21.834C38.829,42,42,38.829,42,34.917V13.083C42,9.171,38.829,6,34.917,6H13.083
	C9.171,6,6,9.171,6,13.083v21.834C6,38.829,9.171,42,13.083,42z"/>
<path style="fill:#FFFFFF;" d="M23,34c-2.347-4.355-8-5-12-1V17c4-4,9-3,12,0V34z"/>
<path style="fill:#FFFFFF;" d="M25,34c2.347-4.355,8-5,12-1V17c-4-4-9-3-12,0V34z"/>
</svg>